# xmcd
#
# Track frame offsets:
#	150
#	14553
#	30374
#	45374
#	60259
#	76296
#	92331
#	107907
#	121471
#	139629
#	154780
#
# Disc length: 2299 seconds
#
# Revision: 1
# Processed by: cddbd v1.5.2PL0 Copyright (c) Steve Scherf et al.
# Submitted via: audiograbber 1.83.01
#
DISCID=7908f90b
DTITLE=Maren Morris - Hero
DYEAR=2016
DGENRE=Country
TTITLE0=Sugar
TTITLE1=Rich
TTITLE2=My Church
TTITLE3=I Could Use A Love Song
TTITLE4=80's Mercedes
TTITLE5=Drunk Girls Don't Cry
TTITLE6=How It's Done
TTITLE7=Just Another Thing
TTITLE8=I Wish I Was
TTITLE9=Second Wind
TTITLE10=Once
EXTD=
EXTT0=
EXTT1=
EXTT2=
EXTT3=
EXTT4=
EXTT5=
EXTT6=
EXTT7=
EXTT8=
EXTT9=
EXTT10=
PLAYORDER=
